<svg width="24" height="25" viewBox="0 0 24 25" fill="none" xmlns="http://www.w3.org/2000/svg">
<path fill-rule="evenodd" clip-rule="evenodd" d="M21.5303 11.9697C21.8232 12.2626 21.8232 12.7374 21.5303 13.0303L17.0303 17.5303C16.7374 17.8232 16.2626 17.8232 15.9697 17.5303C15.6768 17.2374 15.6768 16.7626 15.9697 16.4697L19.1893 13.25L7.5 13.25C7.08579 13.25 6.75 12.9142 6.75 12.5C6.75 12.0858 7.08579 11.75 7.5 11.75L19.1893 11.75L15.9697 8.53033C15.6768 8.23744 15.6768 7.76256 15.9697 7.46967C16.2626 7.17678 16.7374 7.17678 17.0303 7.46967L21.5303 11.9697ZM8.25 3.5C8.25 3.91421 7.91421 4.25 7.5 4.25H5.25C4.42157 4.25 3.75 4.92157 3.75 5.75V19.25C3.75 20.0784 4.42157 20.75 5.25 20.75H7.5C7.91421 20.75 8.25 21.0858 8.25 21.5C8.25 21.9142 7.91421 22.25 7.5 22.25H5.25C3.59315 22.25 2.25 20.9069 2.25 19.25V5.75C2.25 4.09315 3.59315 2.75 5.25 2.75H7.5C7.91421 2.75 8.25 3.08579 8.25 3.5Z" fill="white"/>
</svg>
