<svg width="44" height="43" viewBox="0 0 44 43" fill="none" xmlns="http://www.w3.org/2000/svg">
<path d="M17.7 1.84293C17.7 1.08296 17.2336 0.400936 16.5252 0.125442C15.817 -0.150077 15.0122 0.0374521 14.4987 0.597679L0.984431 15.3405C0.490595 15.8792 0.361767 16.6589 0.656034 17.3277C0.950325 17.9968 1.61208 18.4285 2.34291 18.4285H41.6571C42.6748 18.4285 43.4999 17.6034 43.4999 16.5857C43.4999 15.568 42.6748 14.7429 41.6571 14.7429H17.7V1.84293Z" fill="url(#paint0_linear_671_33209)"/>
<path d="M26.2999 41.1572V28.2572H2.34285C1.32506 28.2572 0.5 27.4321 0.5 26.4144C0.5 25.3966 1.32506 24.5715 2.34285 24.5715H41.657C42.3878 24.5715 43.0497 25.0035 43.3438 25.6723C43.6382 26.3414 43.5094 27.1211 43.0156 27.6597L29.5013 42.4025C28.9878 42.9627 28.183 43.1502 27.4747 42.8748C26.7665 42.5993 26.2999 41.9172 26.2999 41.1572Z" fill="url(#paint1_linear_671_33209)"/>
<defs>
<linearGradient id="paint0_linear_671_33209" x1="22" y1="0" x2="22" y2="18.4285" gradientUnits="userSpaceOnUse">
<stop stop-color="#E071DF"/>
<stop offset="1" stop-color="#02E4F0"/>
</linearGradient>
<linearGradient id="paint1_linear_671_33209" x1="22" y1="24.5715" x2="22" y2="43.0002" gradientUnits="userSpaceOnUse">
<stop stop-color="#E071DF"/>
<stop offset="1" stop-color="#02E4F0"/>
</linearGradient>
</defs>
</svg>
