<svg width="28" height="29" viewBox="0 0 28 29" fill="none" xmlns="http://www.w3.org/2000/svg">
<path fill-rule="evenodd" clip-rule="evenodd" d="M3.5 8.46436C3.5 7.98111 3.89175 7.58936 4.375 7.58936H23.625C24.1082 7.58936 24.5 7.98111 24.5 8.46436C24.5 8.9476 24.1082 9.33936 23.625 9.33936H4.375C3.89175 9.33936 3.5 8.9476 3.5 8.46436ZM3.5 14.5894C3.5 14.1061 3.89175 13.7144 4.375 13.7144H23.625C24.1082 13.7144 24.5 14.1061 24.5 14.5894C24.5 15.0726 24.1082 15.4644 23.625 15.4644H4.375C3.89175 15.4644 3.5 15.0726 3.5 14.5894ZM13.125 20.7144C13.125 20.2311 13.5168 19.8394 14 19.8394H23.625C24.1082 19.8394 24.5 20.2311 24.5 20.7144C24.5 21.1976 24.1082 21.5894 23.625 21.5894H14C13.5168 21.5894 13.125 21.1976 13.125 20.7144Z" fill="#333333"/>
</svg>
