<svg width="28" height="28" viewBox="0 0 28 28" fill="none" xmlns="http://www.w3.org/2000/svg">
<path fill-rule="evenodd" clip-rule="evenodd" d="M6.61883 6.61872C6.96054 6.27701 7.51456 6.27701 7.85627 6.61872L21.4681 20.2305C21.8098 20.5722 21.8098 21.1263 21.4681 21.468C21.1264 21.8097 20.5723 21.8097 20.2306 21.468L6.61883 7.85616C6.27712 7.51445 6.27712 6.96043 6.61883 6.61872Z" fill="#333333"/>
<path d="M6.61872 21.6363C6.27701 21.2946 6.27701 20.7406 6.61872 20.3989L20.2305 6.78705C20.5722 6.44535 21.1263 6.44535 21.468 6.78705C21.8097 7.12876 21.8097 7.68278 21.468 8.02449L7.85616 21.6363C7.51445 21.978 6.96043 21.978 6.61872 21.6363Z" fill="#333333"/>
</svg>
