<svg width="24" height="24" viewBox="0 0 24 24" fill="none" xmlns="http://www.w3.org/2000/svg">
<g clip-path="url(#clip0_0_18)">
<path fill-rule="evenodd" clip-rule="evenodd" d="M23.7071 11.2424C24.0976 11.6608 24.0976 12.3392 23.7071 12.7576L17.7071 19.1862C17.3166 19.6046 16.6834 19.6046 16.2929 19.1862C15.9024 18.7678 15.9024 18.0894 16.2929 17.671L20.5858 13.0714L5 13.0714C4.44772 13.0714 4 12.5917 4 12C4 11.4083 4.44772 10.9286 5 10.9286L20.5858 10.9286L16.2929 6.32904C15.9024 5.91062 15.9024 5.23223 16.2929 4.81381C16.6834 4.3954 17.3166 4.3954 17.7071 4.81381L23.7071 11.2424Z" fill="white"/>
</g>
<defs>
<clipPath id="clip0_0_18">
<rect width="24" height="24" fill="white" transform="matrix(0 1 -1 0 24 0)"/>
</clipPath>
</defs>
</svg>
