<svg width="418" height="383" viewBox="0 0 418 383" fill="none" xmlns="http://www.w3.org/2000/svg">
<g opacity="0.4">
<path d="M297.967 2.79285L374.588 0L371.81 76.6498L359.037 76.2029L360.992 22.65L114.003 269.733L104.971 260.698L351.974 13.6012L298.428 15.5562L297.967 2.79285Z" fill="#CE2ACD"/>
<path d="M245.733 171.467L245.356 160.854L309.051 158.522L306.747 222.255L296.125 221.878L297.758 177.36L92.422 382.774L84.9121 375.261L290.262 169.833L245.733 171.467Z" fill="#CE2ACD"/>
<path d="M332.976 198.418L332.795 193.265L363.714 192.134L362.597 223.079L357.446 222.897L358.228 201.281L258.547 300.999L254.904 297.355L354.585 197.636L332.976 198.418Z" fill="#CE2ACD"/>
<path d="M200.59 195.08L200.408 189.928L231.327 188.797L230.211 219.727L225.06 219.546L225.841 197.943L126.161 297.648L122.517 294.003L222.212 194.284L200.59 195.08Z" fill="#CE2ACD"/>
<path d="M145.103 30.5398L144.922 25.387L175.841 24.2559L174.71 55.1867L169.559 55.0052L170.355 33.4025L70.674 133.107L67.0307 129.463L166.711 29.7439L145.103 30.5398Z" fill="#CE2ACD"/>
<path d="M359.749 101.311L359.652 98.6994L375.341 98.1269L374.769 113.823L372.159 113.739L372.564 102.763L321.976 153.369L320.134 151.512L370.707 100.906L359.749 101.311Z" fill="#CE2ACD"/>
<path d="M179.079 147.742L178.995 145.13L194.685 144.558L194.113 160.254L191.503 160.17L191.893 149.194L141.32 199.8L139.464 197.943L190.051 147.351L179.079 147.742Z" fill="#CE2ACD"/>
<path d="M402.394 187.875L402.31 185.264L418 184.691L417.428 200.387L414.817 200.303L415.208 189.327L364.635 239.934L362.778 238.076L413.366 187.484L402.394 187.875Z" fill="#CE2ACD"/>
<path d="M250.619 5.27859L250.535 2.66728L266.225 2.09474L265.652 17.7906L263.042 17.6928L263.433 6.73087L212.86 57.3233L211.003 55.4801L261.59 4.87363L250.619 5.27859Z" fill="#CE2ACD"/>
<path d="M211.212 130.915L212.832 86.3969L7.5099 291.811L0 284.298L205.35 78.8702L160.821 80.504L160.444 69.8772L224.138 67.5591L221.835 131.292L211.212 130.915Z" fill="#CE2ACD"/>
</g>
</svg>
