<svg width="27" height="28" viewBox="0 0 27 28" fill="none" xmlns="http://www.w3.org/2000/svg">
<path d="M25.2399 24.4999H21.8745V12.2495H25.2399C25.971 12.2495 26.6184 11.7573 26.8422 11.0345C27.0655 10.31 26.8127 9.5168 26.2179 9.07578L14.4393 0.32551C13.8542 -0.108503 13.0688 -0.108503 12.4841 0.32551L0.705454 9.07578C0.110635 9.5168 -0.142605 10.3096 0.0811882 11.0345C0.30414 11.7573 0.951543 12.2495 1.68266 12.2495H5.04797V24.4999H1.68266C0.752569 24.4999 0 25.2826 0 26.2499V28H26.9225V26.2499C26.9225 25.2826 26.1699 24.4999 25.2399 24.4999ZM11.7786 24.4999H8.41329V12.2495H11.7786V24.4999ZM18.5092 24.4999H15.1439V12.2495H18.5092V24.4999Z" fill="url(#paint0_linear_676_48106)"/>
<defs>
<linearGradient id="paint0_linear_676_48106" x1="13.4613" y1="0" x2="13.4613" y2="28" gradientUnits="userSpaceOnUse">
<stop stop-color="#CE2ACD"/>
<stop offset="1" stop-color="#5BEBFF"/>
</linearGradient>
</defs>
</svg>
