<svg width="251" height="251" viewBox="0 0 251 251" fill="none" xmlns="http://www.w3.org/2000/svg">
<path fill-rule="evenodd" clip-rule="evenodd" d="M106.901 70.4845C106.289 68.942 104.542 68.1877 103 68.7999C101.457 69.4121 100.703 71.1589 101.315 72.7015L107.341 87.8857C106.467 88.2495 105.608 88.6304 104.767 89.0288C99.7029 91.4268 95.041 94.5792 92.0008 98.6974C88.8687 102.94 87.5511 108.101 89.1224 114.018C90.4607 119.058 92.6199 122.893 95.5394 125.663C98.4652 128.439 101.962 129.963 105.667 130.692C112.875 132.11 121.323 130.57 128.868 129.166L129.562 129.037L129.563 129.037C133.192 128.361 136.647 127.717 139.898 127.345C143.362 126.949 146.385 126.89 148.919 127.363C151.401 127.826 153.307 128.776 154.735 130.349C156.185 131.944 157.396 134.459 157.956 138.501C158.493 142.379 157.068 145.901 154.015 149.172C150.911 152.497 146.261 155.39 140.878 157.726C130.046 162.427 117.316 164.427 110.99 163.746C109.34 163.569 107.858 164.763 107.68 166.413C107.503 168.063 108.696 169.544 110.347 169.722C116.851 170.422 127.83 168.846 138.054 165.274L144.102 180.514C144.714 182.057 146.461 182.811 148.004 182.199C149.546 181.587 150.301 179.84 149.688 178.297L143.647 163.075C149.293 160.585 154.612 157.34 158.408 153.273C162.339 149.061 164.758 143.808 163.909 137.676C163.237 132.826 161.678 129.053 159.184 126.308C156.67 123.54 153.46 122.096 150.02 121.455C146.631 120.823 142.924 120.95 139.215 121.374C135.745 121.771 132.09 122.452 128.519 123.118L127.768 123.258C119.932 124.716 112.691 125.948 106.827 124.795C103.997 124.238 101.612 123.141 99.6762 121.303C97.7336 119.46 96.0503 116.69 94.931 112.475C93.8589 108.438 94.7142 105.141 96.8359 102.267C99.0495 99.2685 102.722 96.6467 107.339 94.4605C116.564 90.0917 128.524 87.9431 136.386 87.5233C138.043 87.4348 139.315 86.0196 139.227 84.3623C139.138 82.7051 137.723 81.4333 136.066 81.5218C129.839 81.8543 121.182 83.1872 112.987 85.8188L106.901 70.4845Z" fill="#CE2ACD"/>
</svg>
