<svg width="90" height="90" viewBox="0 0 90 90" fill="none" xmlns="http://www.w3.org/2000/svg">
<g clip-path="url(#clip0_1_24598)">
<path d="M60.0694 60.0506C60.197 57.6304 59.3609 55.1726 57.5609 52.6781C61.716 53.6915 65.1369 52.2847 67.8254 48.4582C68.8102 47.0792 69.4111 45.6665 69.6289 44.218C69.8464 42.769 69.6986 41.3261 69.1825 39.8865C68.6679 38.4469 67.9474 37.068 67.0248 35.7504C66.1018 34.4327 64.933 33.0465 63.519 31.5929L69.8256 24.2693L65.3505 20.4157L59.2191 27.5358C58.4442 26.8685 57.2458 25.8702 55.6238 24.541L61.8052 17.3628L57.3295 13.5086L51.023 20.8322C50.3667 20.3009 49.4187 19.5017 48.1788 18.434L42.0431 13.0993L37.9387 17.8655L41.1644 20.6432C42.6368 21.9112 42.9316 23.3125 42.0491 24.8467L34.8665 33.1875C35.0605 33.3546 35.2068 33.4979 35.3065 33.6174L34.8413 33.2169L24.7813 44.8992C23.7758 45.7537 22.7882 45.7644 21.8194 44.9301L18.594 42.1526L13.1131 46.6951L18.9255 51.7003C19.2937 52.0174 19.8219 52.4808 20.5122 53.0904C21.2011 53.7007 21.7198 54.1558 22.0686 54.4562L15.6871 61.8668L20.1635 65.7216L26.47 58.3981C27.2664 59.1185 28.4401 60.1457 29.99 61.4804L23.7088 68.7745L28.184 72.6283L34.5655 65.2177C36.2211 66.5087 37.755 67.5778 39.1689 68.4229C40.5834 69.2685 42.048 69.9487 43.5638 70.4605C45.079 70.9728 46.5068 71.2148 47.8463 71.1873C49.1856 71.1607 50.5526 70.8357 51.9486 70.2155C53.343 69.5938 54.701 68.6544 56.021 67.3949C58.5924 64.9204 59.9416 62.4715 60.0694 60.0506ZM51.2068 29.8463C51.3425 29.9632 51.7294 30.2878 52.3674 30.8202C53.006 31.3528 53.5371 31.7935 53.9621 32.1424C54.387 32.4916 54.928 32.9997 55.5854 33.667C56.2424 34.334 56.7712 34.9247 57.1722 35.4383C57.5731 35.952 57.9687 36.5711 58.3575 37.294C58.7476 38.0176 58.9786 38.6891 59.0516 39.3087C59.1254 39.9289 59.0703 40.5903 58.8866 41.2926C58.7037 41.9953 58.3368 42.6663 57.7863 43.3055C57.3191 43.8481 56.8066 44.2673 56.2485 44.5632C55.6909 44.859 55.1075 45.0063 54.5006 45.0066C53.8935 45.0069 53.3089 44.9595 52.749 44.8651C52.1896 44.771 51.5649 44.5454 50.8768 44.1889C50.1888 43.8326 49.5981 43.5096 49.1055 43.2201C48.6124 42.9306 48.0337 42.5253 47.3694 42.0036C46.705 41.4818 46.2034 41.0843 45.866 40.8104C45.5283 40.5362 45.0779 40.1484 44.5144 39.6465C43.9508 39.1445 43.6214 38.852 43.5243 38.7684L51.2072 29.8465L51.2069 29.8462L51.2068 29.8463ZM46.3853 60.1608C45.8169 60.4477 45.246 60.6314 44.6718 60.7109C44.0978 60.7892 43.4644 60.7504 42.7734 60.5934C42.0818 60.4372 41.4464 60.2436 40.8676 60.0152C40.2878 59.7869 39.6338 59.4586 38.9043 59.0336C38.1736 58.607 37.5513 58.2137 37.0342 57.8533C36.5179 57.4933 35.9182 57.044 35.234 56.5059C34.551 55.9673 34.0245 55.5397 33.6566 55.2228C33.2884 54.9058 32.8279 54.5 32.2741 54.0067C31.7197 53.5135 31.3659 53.2003 31.2107 53.0667L39.6698 43.2434C39.8246 43.3768 40.293 43.7636 41.0755 44.403C41.8578 45.0427 42.4901 45.5714 42.9745 45.9885C43.4589 46.4056 44.1029 47.01 44.9053 47.8029C45.7076 48.5943 46.3497 49.2985 46.8313 49.9157C47.3121 50.5324 47.792 51.2574 48.2715 52.0926C48.7507 52.9267 49.0536 53.702 49.1797 54.4179C49.3052 55.1344 49.2802 55.8878 49.1035 56.6806C48.9276 57.4737 48.5389 58.2189 47.9381 58.9166C47.4704 59.4595 46.9537 59.8736 46.3853 60.1608Z" fill="#F6543E"/>
</g>
<defs>
<clipPath id="clip0_1_24598">
<rect width="63.8046" height="63.8046" fill="white" transform="translate(41.6423) rotate(40.7328)"/>
</clipPath>
</defs>
</svg>
