<svg width="40" height="65" viewBox="0 0 40 65" fill="none" xmlns="http://www.w3.org/2000/svg">
<path fill-rule="evenodd" clip-rule="evenodd" d="M19.39 0.628792C19.2449 0.974539 14.8586 8.30469 9.64275 16.9181C4.42691 25.5313 0.115989 32.6915 0.0626532 32.8297C-0.0066122 33.0094 2.827 34.7638 9.99857 38.9812L20.0317 44.8811L30.0619 38.978C37.2678 34.7369 40.0647 33.0034 39.9948 32.8217C39.6323 31.8815 20.1278 0 19.915 0C19.7714 0 19.5352 0.282867 19.39 0.628792ZM0.0864581 37.0729C0.473056 37.7307 19.9488 65.0025 20.0302 65C20.1648 64.9959 40.0767 36.992 39.9998 36.9153C39.9271 36.8431 21.3151 47.7528 20.5387 48.3226L20.0628 48.6721L10.4263 43.0097C5.12618 39.8955 0.594046 37.2218 0.354929 37.0685C-0.0415128 36.8143 -0.0653172 36.8146 0.0864581 37.0729Z" fill="#6374C4"/>
</svg>
