<svg width="88" height="28" viewBox="0 0 88 28" fill="none" xmlns="http://www.w3.org/2000/svg">
<path d="M43.5716 0.498434L37.6946 27.3307H30.5823L36.4681 0.498434H43.5716ZM73.4908 17.8232L77.2318 7.74574L79.3884 17.8232H73.4908ZM81.4217 27.3307H88L82.2609 0.498434H76.1902C76.1814 0.498434 76.1696 0.498434 76.1608 0.498434C74.8141 0.498434 73.658 1.30337 73.171 2.44633L73.1622 2.46638L62.4967 27.3307H69.9611L71.4457 23.3203H80.5679L81.4217 27.3307ZM62.8634 18.5709C62.8928 11.4868 52.8317 11.0973 52.9021 7.93194C52.9256 6.96945 53.8616 5.94394 55.9154 5.68327C56.2969 5.64603 56.737 5.62311 57.183 5.62311C59.2691 5.62311 61.2467 6.08717 63.0072 6.91789L62.928 6.88351L64.175 1.19165C62.2003 0.444006 59.9146 0.00859365 57.5263 0H57.5233C50.4932 0 45.5492 3.6523 45.5052 8.87438C45.4612 12.7358 49.0349 14.8871 51.7314 16.1761C54.5041 17.4909 55.4343 18.336 55.4196 19.5076C55.402 21.3122 53.2131 22.1029 51.1651 22.1344C51.0712 22.1372 50.9568 22.1372 50.8453 22.1372C48.2897 22.1372 45.8837 21.5099 43.7829 20.4013L43.8621 20.4386L42.574 26.3166C44.8802 27.2189 47.5532 27.7403 50.3524 27.7403C50.3964 27.7403 50.4404 27.7403 50.4844 27.7403H50.4785C57.9488 27.7403 62.8341 24.1396 62.8605 18.5623L62.8634 18.5709ZM33.4108 0.498434L21.8914 27.3307H14.3742L8.70552 5.91243C8.59696 4.86973 7.94265 3.99891 7.03308 3.5635L7.01547 3.55491C4.9968 2.58669 2.64951 1.79894 0.193652 1.30337L0 1.27186L0.170179 0.495568H12.2705C13.9194 0.495568 15.2897 1.6729 15.5449 3.21116L15.5479 3.22835L18.5436 18.7571L25.9435 0.492702L33.4108 0.498434Z" fill="white"/>
</svg>
