<svg width="492" height="204" viewBox="0 0 492 204" fill="none" xmlns="http://www.w3.org/2000/svg">
<g clip-path="url(#clip0_1_24545)">
<path d="M146.371 167.768C144.68 180.239 138.46 191.649 131.825 202.641C131.606 203.015 131.38 203.383 131.149 203.758H62.1854C60.7906 203.417 59.4139 203.043 58.0429 202.641C50.2537 200.409 42.9001 197.004 36.2679 192.56C10.8964 175.358 1.1334 142.853 5.54311 113.727C8.28509 95.6317 16.7243 77.1564 33.1579 67.4106C41.8347 62.2556 52.9803 60.5801 62.9687 62.4958C63.2301 62.5405 63.4912 62.5963 63.7581 62.6466C72.3518 64.4673 80.0077 68.9911 84.3641 76.2796C92.1979 89.3765 87.5332 105.601 83.6816 120.178C79.8416 134.755 77.7583 152.202 88.9042 162.953C85.2244 152.761 88.8566 140.602 97.6462 133.71C104.287 128.511 113.534 126.561 121.967 128.176C122.774 128.338 123.57 128.522 124.353 128.745C126.246 129.267 128.072 129.986 129.795 130.89C142.941 137.799 148.265 153.71 146.371 167.768Z" fill="#F2F2F2"/>
<path d="M105.48 202.64C107.391 203.059 109.308 203.428 111.237 203.757H100.81C99.4443 203.411 98.0852 203.043 96.7383 202.64C93.7767 201.769 90.8606 200.77 87.9902 199.641C76.4766 195.095 65.8709 188.27 57.847 179.189C53.9228 174.789 50.7183 169.863 48.3394 164.573C45.7598 158.594 44.1204 152.293 43.4729 145.869C42.0188 132.688 43.5025 119.145 46.274 106.198C49.1342 92.7806 53.7512 79.7481 60.0193 67.3994C60.773 65.9194 61.5524 64.4486 62.3576 62.9872C62.413 62.8669 62.4968 62.7601 62.6027 62.6749C62.7086 62.5897 62.8338 62.5284 62.9687 62.4957C63.2427 62.4458 63.5265 62.5 63.7581 62.6465C64.0361 62.7966 64.2421 63.0414 64.3338 63.3303C64.4255 63.6192 64.3958 63.9302 64.2508 64.1991C57.7881 76.0594 52.8891 88.6182 49.6628 101.596C46.5056 114.258 44.7132 127.505 45.3244 140.524C45.906 152.688 49.2832 164.651 56.9449 174.598C63.9421 183.679 73.604 190.839 84.2928 195.715C91.0582 198.761 98.1651 201.084 105.48 202.64Z" fill="white"/>
<path d="M128.365 203.758H125.291C124.947 203.389 124.614 203.015 124.288 202.641C117.285 194.634 112.542 185.095 110.495 174.905C108.01 162.19 109.943 149.059 116.009 137.458C117.701 134.205 119.695 131.099 121.967 128.176C122.774 128.338 123.57 128.522 124.353 128.745C118.376 136.198 114.355 144.875 112.62 154.068C111.072 162.682 111.586 171.513 114.127 179.916C116.667 188.319 121.168 196.083 127.303 202.641C127.647 203.015 128.003 203.389 128.365 203.758Z" fill="white"/>
<path d="M405.309 194.259C405.756 197.551 407.397 200.562 409.148 203.463C409.206 203.562 409.266 203.659 409.327 203.758H427.527C427.896 203.668 428.259 203.569 428.621 203.463C430.676 202.874 432.617 201.975 434.368 200.802C441.064 196.262 443.64 187.684 442.476 179.997C441.753 175.221 439.525 170.345 435.188 167.773C432.833 166.423 430.023 165.96 427.321 166.476C427.252 166.488 427.183 166.503 427.112 166.516C425.987 166.72 424.921 167.147 423.984 167.767C423.047 168.387 422.259 169.187 421.674 170.114C419.607 173.57 420.838 177.852 421.854 181.699C422.868 185.547 423.417 190.151 420.476 192.989C420.907 191.802 420.995 190.529 420.729 189.3C420.464 188.071 419.856 186.93 418.968 185.996C418.079 185.061 416.942 184.366 415.674 183.982C414.405 183.598 413.051 183.539 411.75 183.81C411.537 183.853 411.327 183.902 411.12 183.961C410.62 184.098 410.139 184.288 409.684 184.527C406.215 186.35 404.81 190.549 405.309 194.259Z" fill="#F2F2F2"/>
<path d="M416.101 203.463C415.597 203.573 415.091 203.671 414.582 203.757H417.334C417.694 203.666 418.053 203.569 418.408 203.463C419.19 203.233 419.96 202.969 420.717 202.671C423.79 201.497 426.518 199.646 428.672 197.273C429.708 196.112 430.554 194.812 431.182 193.416C431.863 191.838 432.295 190.175 432.466 188.48C432.778 184.975 432.529 181.445 431.727 178.01C430.972 174.469 429.753 171.029 428.099 167.77C427.9 167.379 427.695 166.991 427.482 166.606C427.467 166.574 427.445 166.546 427.417 166.523C427.389 166.501 427.356 166.485 427.321 166.476C427.248 166.463 427.174 166.477 427.112 166.516C427.039 166.555 426.985 166.62 426.96 166.696C426.936 166.772 426.944 166.855 426.982 166.925C428.688 170.056 429.981 173.37 430.832 176.795C431.709 180.155 432.095 183.611 431.977 187.069C431.915 190.285 430.848 193.412 428.911 196.062C427.026 198.448 424.548 200.362 421.693 201.635C419.907 202.439 418.032 203.052 416.101 203.463Z" fill="white"/>
<path d="M410.061 203.758H410.873C410.963 203.66 411.051 203.562 411.137 203.463C412.985 201.35 414.237 198.832 414.777 196.143C415.433 192.787 414.923 189.322 413.322 186.26C412.876 185.401 412.35 184.582 411.75 183.81C411.537 183.853 411.327 183.902 411.12 183.961C412.698 185.927 413.759 188.217 414.217 190.644C414.625 192.917 414.489 195.248 413.819 197.465C413.149 199.683 411.961 201.732 410.342 203.463C410.251 203.562 410.157 203.66 410.061 203.758Z" fill="white"/>
<path d="M241.258 118.686H184.295L183.691 102.204C183.665 101.49 183.803 100.779 184.097 100.119C184.391 99.4602 184.834 98.8688 185.394 98.3858C185.954 97.9029 186.618 97.5399 187.342 97.3219C188.065 97.1038 188.831 97.0359 189.585 97.1228L222.733 100.943H222.738C227.652 100.955 232.361 102.8 235.832 106.074C239.304 109.347 241.255 113.782 241.258 118.407V118.686Z" fill="url(#paint0_linear_1_24545)"/>
<path d="M215.869 60.2226H176.14C175.612 60.2225 175.088 60.3203 174.6 60.5106C174.112 60.7008 173.668 60.9797 173.295 61.3313C172.921 61.6828 172.625 62.1003 172.423 62.5597C172.221 63.0191 172.117 63.5115 172.117 64.0087V101.396C172.117 101.893 172.221 102.386 172.423 102.845C172.625 103.304 172.921 103.722 173.295 104.073C173.668 104.425 174.112 104.704 174.6 104.894C175.088 105.084 175.612 105.182 176.14 105.182H215.869C216.397 105.182 216.921 105.084 217.409 104.894C217.897 104.704 218.341 104.425 218.714 104.073C219.088 103.722 219.384 103.304 219.586 102.845C219.788 102.386 219.892 101.893 219.892 101.396V64.0087C219.892 63.5115 219.788 63.0191 219.586 62.5597C219.384 62.1003 219.088 61.6828 218.714 61.3312C218.341 60.9796 217.897 60.7008 217.409 60.5106C216.921 60.3203 216.397 60.2225 215.869 60.2226Z" fill="#CCCCCC"/>
<path d="M206.922 88.1794L188.164 91.617C187.051 91.8196 185.898 91.5987 184.959 91.0026C184.019 90.4065 183.369 89.484 183.151 88.4374L181.709 81.4694C181.494 80.4223 181.728 79.3376 182.362 78.4532C182.995 77.5688 183.976 76.957 185.088 76.752L203.846 73.3144C204.958 73.1117 206.111 73.3327 207.051 73.9288C207.991 74.5249 208.641 75.4474 208.859 76.494L210.3 83.462C210.516 84.5091 210.281 85.5938 209.648 86.4782C209.014 87.3626 208.034 87.9744 206.922 88.1794Z" fill="#3F3D56"/>
<path d="M203.169 79.9476L188.854 82.571C188.592 82.619 188.32 82.5671 188.099 82.4268C187.878 82.2865 187.725 82.0692 187.674 81.8228C187.623 81.5764 187.678 81.321 187.827 81.1129C187.976 80.9047 188.207 80.7608 188.469 80.7128L202.784 78.0895C203.046 78.0415 203.317 78.0934 203.539 78.2337C203.76 78.374 203.913 78.5912 203.964 78.8376C204.015 79.084 203.96 79.3394 203.811 79.5476C203.661 79.7557 203.431 79.8996 203.169 79.9476Z" fill="white"/>
<path d="M200.386 83.8324L192.982 85.1893C192.72 85.2373 192.449 85.1854 192.227 85.0451C192.006 84.9048 191.853 84.6876 191.802 84.4412C191.751 84.1948 191.806 83.9394 191.955 83.7312C192.105 83.5231 192.335 83.3792 192.597 83.3312L200.002 81.9743C200.131 81.9505 200.265 81.951 200.394 81.9758C200.524 82.0005 200.647 82.049 200.756 82.1185C200.866 82.1879 200.96 82.277 201.032 82.3806C201.105 82.4843 201.156 82.6004 201.181 82.7224C201.206 82.8444 201.206 82.9699 201.18 83.0917C201.153 83.2135 201.102 83.3293 201.028 83.4323C200.954 83.5354 200.859 83.6238 200.749 83.6924C200.639 83.7611 200.516 83.8086 200.386 83.8324Z" fill="white"/>
<path d="M219.892 64.0087V68.9779H172.117V64.0087C172.117 63.5115 172.221 63.0191 172.423 62.5597C172.625 62.1003 172.921 61.6828 173.295 61.3313C173.668 60.9797 174.112 60.7008 174.6 60.5106C175.088 60.3203 175.612 60.2225 176.14 60.2226H215.869C216.397 60.2225 216.921 60.3203 217.409 60.5106C217.897 60.7008 218.341 60.9797 218.714 61.3313C219.088 61.6828 219.384 62.1003 219.586 62.5597C219.789 63.0191 219.892 63.5115 219.892 64.0087Z" fill="#B3B3B3"/>
<path d="M315.296 70.5341C315.02 69.6963 314.552 68.9256 313.926 68.2762C313.299 67.6268 312.529 67.1147 311.669 66.7757C310.809 66.4368 309.881 66.2794 308.95 66.3146C308.018 66.3498 307.107 66.5767 306.279 66.9794L251.621 48.525L249.213 61.3746L303.697 75.4742C304.508 76.7384 305.784 77.6787 307.283 78.117C308.781 78.5553 310.398 78.461 311.828 77.8521C313.258 77.2432 314.4 76.1619 315.039 74.8132C315.679 73.4644 315.77 71.9419 315.296 70.5341Z" fill="#FFB8B8"/>
<path opacity="0.2" d="M315.296 70.5341C315.02 69.6963 314.552 68.9256 313.926 68.2762C313.299 67.6268 312.529 67.1147 311.669 66.7757C310.809 66.4368 309.881 66.2794 308.95 66.3146C308.018 66.3498 307.107 66.5767 306.279 66.9794L251.621 48.525L249.213 61.3746L303.697 75.4742C304.508 76.7384 305.784 77.6787 307.283 78.117C308.781 78.5553 310.398 78.461 311.828 77.8521C313.258 77.2432 314.4 76.1619 315.039 74.8132C315.679 73.4644 315.77 71.9419 315.296 70.5341Z" fill="black"/>
<path d="M261.322 50.8664L256.161 63.5557C256.014 63.9167 255.786 64.2437 255.493 64.5145C255.2 64.7852 254.848 64.9932 254.461 65.1245C254.075 65.2557 253.663 65.307 253.254 65.2749C252.844 65.2428 252.447 65.128 252.089 64.9384L239.545 58.2943C237.587 57.5767 236.01 56.1575 235.162 54.3479C234.314 52.5384 234.262 50.4861 235.02 48.641C235.777 46.7959 237.28 45.3087 239.201 44.5052C241.121 43.7018 243.302 43.6477 245.265 44.355L259.272 47.2785C259.673 47.3623 260.05 47.5265 260.378 47.7599C260.706 47.9932 260.976 48.2902 261.17 48.6307C261.365 48.9712 261.479 49.3472 261.505 49.733C261.532 50.1188 261.469 50.5054 261.322 50.8664Z" fill="#2F80ED"/>
<path d="M319.598 82.2835L300.013 90.661L302.584 99.7708C307.55 117.362 308.867 135.689 306.466 153.75L320.785 156.564L332.655 128.081L328.5 95.6876L319.598 82.2835Z" fill="url(#paint1_linear_1_24545)"/>
<path d="M358.026 124.45C345.158 124.45 334.672 133.254 334.163 144.277H381.89C381.381 133.254 370.894 124.45 358.026 124.45Z" fill="#3F3D56"/>
<path d="M348.009 126.35C347.339 76.5884 317.224 81.1664 317.224 81.1664C317.224 81.1664 317.787 96.6555 318.058 97.1372C337.249 131.306 305.577 171.364 265.262 163.995C264.501 163.856 263.771 163.715 263.071 163.572C257.963 162.568 253.452 159.771 250.458 155.75C247.463 151.728 246.209 146.784 246.95 141.923C250.921 111.911 231.169 112.442 231.169 112.442H202.286L187.286 99.7389C186.757 99.2904 186.119 98.9709 185.428 98.8082C184.737 98.6455 184.014 98.6446 183.322 98.8056C182.631 98.9665 181.992 99.2844 181.461 99.7315C180.931 100.179 180.524 100.741 180.278 101.37L178.348 106.299C178.348 106.299 149.861 109.091 152.235 135.341H161.042C161.021 136.087 161.053 136.833 161.137 137.575L226.866 137.072C230.719 137.043 234.12 139.981 234.136 143.606C234.14 144.489 233.955 145.364 233.591 146.177C233.228 146.991 232.694 147.728 232.021 148.343C231.348 148.958 230.55 149.439 229.675 149.757C228.8 150.075 227.866 150.224 226.928 150.195L216.331 149.862C213.067 163.545 221.079 172.761 229.907 178.555C238.219 183.932 248.082 186.782 258.168 186.723H286.956C324.346 186.723 330.874 157.123 330.874 157.123C350.459 149.304 348.009 126.35 348.009 126.35Z" fill="#3F3D56"/>
<path d="M356.246 202.92C374.683 202.92 389.629 188.854 389.629 171.504C389.629 154.154 374.683 140.088 356.246 140.088C337.809 140.088 322.862 154.154 322.862 171.504C322.862 188.854 337.809 202.92 356.246 202.92Z" fill="#3F3D56"/>
<path d="M356.246 179.204C360.765 179.204 364.428 175.757 364.428 171.504C364.428 167.252 360.765 163.804 356.246 163.804C351.727 163.804 348.064 167.252 348.064 171.504C348.064 175.757 351.727 179.204 356.246 179.204Z" fill="white"/>
<path d="M187.696 202.92C208.919 202.92 226.124 186.729 226.124 166.757C226.124 146.785 208.919 130.594 187.696 130.594C166.472 130.594 149.268 146.785 149.268 166.757C149.268 186.729 166.472 202.92 187.696 202.92Z" fill="#3F3D56"/>
<path d="M187.696 175.62C192.898 175.62 197.115 171.652 197.115 166.757C197.115 161.862 192.898 157.893 187.696 157.893C182.494 157.893 178.277 161.862 178.277 166.757C178.277 171.652 182.494 175.62 187.696 175.62Z" fill="white"/>
<path d="M300.069 93.1364L293.022 75.125C292.655 74.1863 292.487 73.1887 292.53 72.1892C292.572 71.1897 292.824 70.2078 293.269 69.2997C293.715 68.3915 294.346 67.5749 295.127 66.8964C295.908 66.2179 296.824 65.6908 297.821 65.3452L318.024 58.3465C319.779 57.7383 321.644 57.4613 323.513 57.5315C325.382 57.6017 327.217 58.0175 328.916 58.7554C330.614 59.4932 332.141 60.5386 333.409 61.8318C334.678 63.125 335.664 64.6407 336.31 66.2923C336.893 67.7748 337.19 69.343 337.189 70.9237C337.181 72.9307 336.699 74.9109 335.776 76.7204C334.853 78.5299 333.514 80.1232 331.855 81.3844C330.656 82.2891 329.309 83.0039 327.866 83.5006L300.069 93.1364Z" fill="#3F3D56"/>
<path d="M336.892 70.9234C336.891 72.8896 336.421 74.8303 335.517 76.603C334.613 78.3756 333.298 79.9349 331.67 81.1663C329.171 80.5461 326.845 79.4211 324.855 77.8696C322.865 76.3182 321.258 74.3775 320.145 72.1824C319.032 69.9873 318.441 67.5905 318.412 65.1586C318.383 62.7268 318.918 60.3181 319.978 58.1002C322.014 57.6837 324.123 57.7014 326.15 58.1522C328.177 58.6029 330.072 59.4753 331.694 60.7052C333.316 61.935 334.625 63.4912 335.525 65.2594C336.424 67.0277 336.892 68.963 336.892 70.9234Z" fill="url(#paint2_linear_1_24545)"/>
<path d="M157.279 138.971C161.868 138.971 165.588 134.721 165.588 129.477C165.588 124.233 161.868 119.982 157.279 119.982C152.691 119.982 148.971 124.233 148.971 129.477C148.971 134.721 152.691 138.971 157.279 138.971Z" fill="url(#paint3_linear_1_24545)"/>
<path d="M267.111 163.085H274.387L277.849 145.327L267.11 145.327L267.111 163.085Z" fill="#FFB8B8"/>
<path d="M265.255 160.85L279.584 160.849H279.584C280.784 160.849 281.971 161.072 283.079 161.503C284.187 161.935 285.193 162.568 286.041 163.366C286.889 164.164 287.562 165.111 288.021 166.154C288.48 167.197 288.716 168.314 288.716 169.442V169.722L265.255 169.723L265.255 160.85Z" fill="#2F2E41"/>
<path d="M275.556 155.797C275.472 155.797 275.387 155.793 275.301 155.785L265.232 155.095C264.824 155.06 264.431 154.937 264.083 154.735C263.734 154.534 263.439 154.26 263.221 153.935C263.002 153.61 262.866 153.242 262.823 152.859C262.779 152.476 262.83 152.089 262.971 151.728L276.447 123.236C276.543 122.982 276.583 122.712 276.562 122.443C276.542 122.174 276.463 121.912 276.33 121.673C276.198 121.431 276.012 121.219 275.786 121.049C275.56 120.88 275.298 120.758 275.018 120.69C268.681 119.131 252.423 114.981 238.349 110.124C232.319 108.044 228.521 105.037 227.061 101.187C225.137 96.1122 227.984 91.4839 228.106 91.2897L228.202 91.1375L241.445 92.2703L255.802 93.4195L287.265 109.296C289.901 110.638 291.904 112.865 292.874 115.534C293.844 118.202 293.71 121.117 292.499 123.697L277.993 154.307C277.783 154.75 277.442 155.127 277.009 155.391C276.577 155.656 276.072 155.796 275.556 155.797Z" fill="#2F2E41"/>
<path d="M243.748 35.9012C251.798 35.9012 258.325 29.7598 258.325 22.1839C258.325 14.608 251.798 8.4665 243.748 8.4665C235.698 8.4665 229.171 14.608 229.171 22.1839C229.171 29.7598 235.698 35.9012 243.748 35.9012Z" fill="#FFB8B8"/>
<path d="M262.957 164.761H270.233L273.694 147.002L262.955 147.003L262.957 164.761Z" fill="#FFB8B8"/>
<path d="M261.1 162.525L275.429 162.525H275.43C276.629 162.525 277.817 162.747 278.924 163.179C280.032 163.611 281.039 164.244 281.887 165.042C282.735 165.84 283.408 166.787 283.867 167.829C284.325 168.872 284.562 169.99 284.562 171.118V171.397L261.101 171.398L261.1 162.525Z" fill="#2F2E41"/>
<path d="M271.402 157.472C271.317 157.472 271.232 157.468 271.147 157.46L261.077 156.771C260.67 156.735 260.277 156.612 259.928 156.411C259.58 156.21 259.285 155.936 259.066 155.61C258.848 155.285 258.712 154.917 258.668 154.534C258.625 154.151 258.676 153.764 258.817 153.403L272.293 124.911C272.389 124.657 272.428 124.387 272.408 124.118C272.388 123.849 272.309 123.587 272.176 123.348C272.043 123.107 271.858 122.894 271.632 122.725C271.405 122.555 271.144 122.433 270.864 122.365C264.527 120.807 248.268 116.656 234.194 111.8C228.165 109.719 224.367 106.712 222.907 102.863C220.982 97.7875 223.83 93.1592 223.952 92.965L224.047 92.8128L237.291 93.9456L251.648 95.0948L283.111 110.972C285.747 112.313 287.749 114.54 288.719 117.209C289.689 119.878 289.555 122.792 288.344 125.372L273.839 155.982C273.629 156.426 273.287 156.802 272.855 157.067C272.422 157.331 271.918 157.472 271.402 157.472Z" fill="#2F2E41"/>
<path d="M248.243 43.6795L232.813 38.653C232.813 38.653 223.126 45.6566 227.78 63.0308C230.209 71.9965 229.501 81.4605 225.762 90.0177C225.311 91.0765 224.792 92.1082 224.207 93.1069C224.207 93.1069 241.418 112.654 257.443 98.1334L251.211 69.9291C251.211 69.9291 261.003 51.2193 248.243 43.6795Z" fill="url(#paint4_linear_1_24545)"/>
<path d="M245.558 36.3677C243.483 33.4454 241.846 29.3934 244.13 26.6129C246.385 23.8684 250.832 24.2727 254.285 23.0583C259.094 21.3668 261.884 16.0495 261.014 11.2875C260.144 6.52553 256.082 2.57799 251.243 0.962788C246.404 -0.652415 240.947 -0.127113 236.208 1.73289C230.374 4.02258 225.37 8.45183 223.272 14.0625C221.173 19.6732 222.295 26.4099 226.648 30.7224C231.315 35.3459 238.64 36.578 245.416 36.5033" fill="#2F2E41"/>
<path d="M231.998 11.4402C229.384 13.443 225.396 12.5534 222.589 10.7958C219.783 9.03817 217.506 6.53541 214.47 5.15736C209.117 2.7279 202.646 4.34293 197.436 7.03398C192.226 9.72503 187.608 13.4428 182.105 15.5546C176.603 17.6664 169.581 17.7707 165.414 13.7832C164.388 16.579 164.304 19.6044 165.174 22.4466C166.043 25.2889 167.823 27.8095 170.27 29.6647C172.718 31.5199 175.715 32.6192 178.851 32.8127C181.987 33.0061 185.11 32.2843 187.794 30.7457C193.824 27.2895 197.154 20.0428 203.917 18.1351C207.659 17.0795 211.677 17.9297 215.46 18.8506C219.242 19.7715 223.185 20.7665 227.002 19.9825C230.819 19.1986 234.389 15.9708 233.904 12.3228L231.998 11.4402Z" fill="#2F2E41"/>
<path d="M314.571 69.9754C314.187 69.1759 313.622 68.4654 312.915 67.8938C312.208 67.3221 311.376 66.9033 310.479 66.6668C309.581 66.4303 308.64 66.3818 307.72 66.5249C306.8 66.6679 305.925 66.999 305.156 67.4948L248.496 55.5277L247.792 68.5586L303.708 76.2243C304.679 77.3847 306.068 78.1698 307.613 78.4307C309.157 78.6916 310.75 78.4103 312.089 77.64C313.428 76.8698 314.42 75.6641 314.877 74.2514C315.335 72.8388 315.226 71.3173 314.571 69.9754Z" fill="#FFB8B8"/>
<path d="M258.431 56.7247L254.972 69.9163C254.874 70.2917 254.691 70.6427 254.435 70.9454C254.18 71.2481 253.858 71.4954 253.492 71.6705C253.125 71.8455 252.723 71.9443 252.313 71.96C251.902 71.9756 251.493 71.9079 251.113 71.7613L237.794 66.6245C235.755 66.1408 234.003 64.9158 232.923 63.2181C231.842 61.5204 231.522 59.4888 232.032 57.569C232.541 55.6493 233.839 53.9981 235.641 52.978C237.443 51.9578 239.601 51.6519 241.642 52.1275L255.926 53.4023C256.335 53.4389 256.731 53.558 257.086 53.7515C257.442 53.9451 257.749 54.2085 257.987 54.5238C258.224 54.8391 258.387 55.1989 258.464 55.5787C258.54 55.9585 258.529 56.3494 258.431 56.7247V56.7247Z" fill="url(#paint5_linear_1_24545)"/>
<path d="M308.025 80.3287C310.319 80.3287 312.179 78.5784 312.179 76.4192C312.179 74.2601 310.319 72.5097 308.025 72.5097C305.731 72.5097 303.871 74.2601 303.871 76.4192C303.871 78.5784 305.731 80.3287 308.025 80.3287Z" fill="url(#paint6_linear_1_24545)"/>
<path d="M492 203.199C492 203.347 491.937 203.489 491.826 203.594C491.714 203.698 491.564 203.757 491.407 203.758H0.593486C0.436084 203.758 0.285128 203.699 0.173828 203.594C0.0625274 203.489 0 203.347 0 203.199C0 203.051 0.0625274 202.909 0.173828 202.804C0.285128 202.699 0.436084 202.641 0.593486 202.641H491.407C491.564 202.641 491.714 202.7 491.826 202.805C491.937 202.909 492 203.051 492 203.199Z" fill="#3F3D56"/>
</g>
<defs>
<linearGradient id="paint0_linear_1_24545" x1="212.473" y1="97.0861" x2="212.473" y2="118.686" gradientUnits="userSpaceOnUse">
<stop stop-color="#E071DF"/>
<stop offset="1" stop-color="#02E4F0"/>
</linearGradient>
<linearGradient id="paint1_linear_1_24545" x1="316.334" y1="82.2835" x2="316.334" y2="156.564" gradientUnits="userSpaceOnUse">
<stop stop-color="#E071DF"/>
<stop offset="1" stop-color="#02E4F0"/>
</linearGradient>
<linearGradient id="paint2_linear_1_24545" x1="327.652" y1="57.8004" x2="327.652" y2="81.1663" gradientUnits="userSpaceOnUse">
<stop stop-color="#E071DF"/>
<stop offset="1" stop-color="#02E4F0"/>
</linearGradient>
<linearGradient id="paint3_linear_1_24545" x1="157.279" y1="119.982" x2="157.279" y2="138.971" gradientUnits="userSpaceOnUse">
<stop stop-color="#E071DF"/>
<stop offset="1" stop-color="#02E4F0"/>
</linearGradient>
<linearGradient id="paint4_linear_1_24545" x1="240.825" y1="38.653" x2="240.825" y2="103.5" gradientUnits="userSpaceOnUse">
<stop stop-color="#E071DF"/>
<stop offset="1" stop-color="#02E4F0"/>
</linearGradient>
<linearGradient id="paint5_linear_1_24545" x1="245.154" y1="51.9085" x2="245.154" y2="71.9622" gradientUnits="userSpaceOnUse">
<stop stop-color="#E071DF"/>
<stop offset="1" stop-color="#02E4F0"/>
</linearGradient>
<linearGradient id="paint6_linear_1_24545" x1="308.025" y1="72.5097" x2="308.025" y2="80.3287" gradientUnits="userSpaceOnUse">
<stop stop-color="#E071DF"/>
<stop offset="1" stop-color="#02E4F0"/>
</linearGradient>
<clipPath id="clip0_1_24545">
<rect width="491.932" height="203.73" fill="white"/>
</clipPath>
</defs>
</svg>
