<svg width="37" height="49" viewBox="0 0 37 49" fill="none" xmlns="http://www.w3.org/2000/svg">
<path d="M36.9996 35.6944C36.309 38.1425 35.22 40.5907 33.7326 43.0389C31.4483 46.8776 29.1729 48.797 26.9064 48.797C26.0387 48.797 24.7992 48.4836 23.1878 47.8569C21.665 47.2301 20.3281 46.9168 19.1771 46.9168C18.097 46.9168 16.8397 47.2399 15.4054 47.8862C13.9711 48.5521 12.8024 48.8851 11.8994 48.8851C9.20784 48.8851 6.54288 46.3488 3.90448 41.2762C1.30149 36.1644 0 31.2387 0 26.499C0 22.0335 1.00047 18.3711 3.0014 15.5116C5.00234 12.6913 7.51679 11.2812 10.5448 11.2812C11.8197 11.2812 13.3868 11.575 15.2461 12.1625C17.0876 12.7501 18.3094 13.0439 18.9115 13.0439C19.7083 13.0439 20.9744 12.7109 22.7097 12.045C24.5159 11.3791 26.0476 11.0462 27.3048 11.0462C29.412 11.0462 31.2978 11.6827 32.9623 12.9557C33.8831 13.6608 34.8039 14.6401 35.7247 15.8935C34.3258 17.2058 33.3165 18.3613 32.6967 19.3601C31.5457 21.2012 30.9702 23.2283 30.9702 25.4414C30.9702 27.87 31.5811 30.0538 32.8029 31.9927C34.0248 33.9317 35.4236 35.1655 36.9996 35.6944ZM27.0126 1.23388C27.0126 2.42859 26.7559 3.76039 26.2424 5.2293C25.7111 6.6982 24.8877 8.04959 23.7722 9.28347C22.816 10.3411 21.8598 11.0462 20.9036 11.3987C20.2484 11.6141 19.3276 11.7806 18.1412 11.8981C18.1943 8.9799 18.8849 6.46317 20.213 4.34795C21.5233 2.25232 23.7368 0.803 26.8533 0C26.871 0.0587561 26.8931 0.166476 26.9197 0.323159C26.9462 0.479842 26.9684 0.587561 26.9861 0.646317C26.9861 0.724659 26.9905 0.822586 26.9993 0.940098C27.0082 1.05761 27.0126 1.15554 27.0126 1.23388Z" fill="#DDDDDD"/>
</svg>
