<svg width="150" height="150" viewBox="0 0 150 150" fill="none" xmlns="http://www.w3.org/2000/svg">
<path fill-rule="evenodd" clip-rule="evenodd" d="M87.6131 33.3958C80.4056 31.79 72.9602 32.7089 66.2349 36.0059C59.5194 39.2981 53.8614 44.7915 49.9133 51.7233C48.2976 54.56 46.9937 57.592 46.0171 60.75H35.625C33.9681 60.75 32.625 62.0932 32.625 63.75C32.625 65.4069 33.9681 66.75 35.625 66.75H44.5821C44.1169 69.4567 43.8799 72.2196 43.8799 75.0001C43.8799 77.7805 44.1168 80.5434 44.5821 83.25H35.625C33.9681 83.25 32.625 84.5932 32.625 86.25C32.625 87.9069 33.9681 89.25 35.625 89.25H46.0171C46.9937 92.4081 48.2976 95.4401 49.9133 98.2768C53.8614 105.209 59.5194 110.702 66.2349 113.994C72.9602 117.291 80.4056 118.21 87.6131 116.604C94.8134 115 101.375 110.967 106.508 105.1C107.599 103.853 107.472 101.958 106.225 100.867C104.978 99.7762 103.083 99.9027 101.992 101.15C97.6306 106.135 92.1637 109.443 86.3083 110.748C80.4602 112.051 74.4044 111.317 68.876 108.607C63.3377 105.892 58.535 101.291 55.1269 95.3073C54.0345 93.3894 53.1035 91.3605 52.3425 89.25H80.625C82.2818 89.25 83.625 87.9069 83.625 86.25C83.625 84.5932 82.2818 83.25 80.625 83.25H50.6829C50.1527 80.5622 49.8799 77.7953 49.8799 75.0001C49.8799 72.2048 50.1527 69.4379 50.6829 66.75H80.625C82.2818 66.75 83.625 65.4069 83.625 63.75C83.625 62.0932 82.2818 60.75 80.625 60.75H52.3425C53.1035 58.6396 54.0345 56.6107 55.1269 54.6928C58.535 48.7092 63.3377 44.1084 68.876 41.3934C74.4044 38.6832 80.4602 37.9492 86.3083 39.2522C92.1637 40.5567 97.6306 43.8647 101.992 48.8503C103.083 50.0974 104.978 50.2239 106.225 49.133C107.472 48.0421 107.599 46.1468 106.508 44.8998C101.375 39.0329 94.8134 35 87.6131 33.3958Z" fill="#3629B7"/>
</svg>
