<svg width="29" height="28" viewBox="0 0 29 28" fill="none" xmlns="http://www.w3.org/2000/svg">
<path d="M25.7778 9.80718C25.7778 9.80718 21.5404 7.50608 18.4991 8.58689C16.6348 9.24924 15.6582 11.3004 16.3164 13.1703C16.9796 15.0375 19.0266 16.0139 20.8917 15.3516C23.9323 14.2707 25.7778 9.80718 25.7778 9.80718Z" fill="#A0D468"/>
<path d="M22.0149 10.7465C21.9382 10.7344 21.8624 10.7353 21.7904 10.7465C21.7041 10.7594 19.666 11.0804 17.4206 12.1696C16.4553 12.6365 15.5965 13.1776 14.8567 13.7809V9.33541H13.5465V15.0608C12.7001 16.061 12.1182 17.1864 11.8149 18.4162L13.094 18.6708C13.3675 17.5626 13.9034 16.5503 14.6897 15.6563H14.8567V15.4725C14.9124 15.4129 14.969 15.3542 15.027 15.2955C15.8152 14.5007 16.8189 13.8033 18.0088 13.2225C20.0689 12.2171 21.9918 11.9107 22.011 11.9073C22.2759 11.8658 22.4956 11.6811 22.5455 11.43C22.6088 11.1089 22.3709 10.8034 22.0149 10.7465Z" fill="#8CC153"/>
<path d="M6.44434 21.7825C6.44434 21.7825 10.6877 15.5937 14.4999 15.5591C18.3121 15.5236 22.5554 21.7825 22.5554 21.7825H6.44434Z" fill="#434A54"/>
<path d="M25.5386 19.9229C25.3493 19.908 25.1413 19.901 24.913 19.901C23.4262 19.901 21.111 20.2143 17.9382 20.7673C17.5435 19.6542 15.0354 19.166 15.0354 19.166C15.0354 19.166 9.62227 18.8747 6.1672 18.6883C5.94681 18.676 5.73351 18.6708 5.5282 18.6708C0.951384 18.6699 0 21.4944 0 21.4944V24.4204C0.00175626 26.0978 5.23083 26.9203 5.24856 26.9229C9.40234 27.7341 14.5076 28.0062 14.5076 28.0062C14.5076 28.0062 28.4973 22.5716 28.8646 22.254C29.2318 21.9372 29.0707 20.2029 25.5386 19.9229Z" fill="#EAC6BB"/>
<path d="M21.4817 20.7454C20.4069 20.8576 19.1538 21.0153 17.7216 21.2132C17.539 21.2771 17.3512 21.3424 17.1582 21.407C13.4043 22.6654 10.7493 22.9292 9.18341 22.9292C8.85718 22.9292 8.59277 23.1372 8.59277 23.3935C8.59277 23.6499 8.85713 23.8572 9.18341 23.8572C11.6264 23.8572 14.4717 23.3181 17.6403 22.2548C19.5562 21.6109 20.9858 20.9745 21.4817 20.7454Z" fill="#DBADA2"/>
<path d="M17.8966 4.44499C17.2933 3.04358 15.9992 2.0746 14.4998 2.0746C13.0004 2.0746 11.706 3.04363 11.1026 4.44499H10.7407V6.22325C10.7407 8.51466 12.4238 10.3727 14.4998 10.3727C16.5758 10.3727 18.2592 8.51461 18.2592 6.22325V4.44499H17.8966Z" fill="#F6BB42"/>
<path d="M18.2592 4.1486C18.2592 6.44001 16.5757 8.29814 14.4998 8.29814C12.4238 8.29814 10.7407 6.43995 10.7407 4.1486C10.7407 1.85725 12.4238 0 14.4998 0C16.5758 0 18.2592 1.85725 18.2592 4.1486Z" fill="#FFCE54"/>
<path d="M15.037 2.76652H15.0362C15.0362 2.39176 14.8045 2.0839 14.5123 2.07476C14.2158 2.06665 13.97 2.36848 13.9629 2.75032C13.9629 2.75537 13.9633 2.76043 13.9633 2.76652H13.9629V5.53268H13.9633C13.9633 5.90647 14.195 6.21439 14.4872 6.22347C14.7837 6.23261 15.0295 5.92975 15.0366 5.54785C15.0366 5.54279 15.0362 5.53774 15.0362 5.53268H15.037V2.76652Z" fill="#E8AA3D"/>
</svg>
